PathFileType	4	(X/Y/Z)	C:\Users\WrightLab\Desktop\Jo\P4V18.trc
DataRate	CameraRate	NumFrames	NumMarkers	Units	OrigDataRate	OrigDataStartFrame	OrigNumFrames
100.00	100.00	       15	19	mm	100.00	63	       502
Frame#	Time	Headset_Front			Headset_Back			Headset_Left			Headset_Right			Left_Shoulder			Right_Shoulder			Sternum			C7			Left Elbow			Right Elbow			Left Wrist			Right Wrist			Left ASIS			Right ASIS			S2			Left Knee			Right Knee			Left Ankle			Right Ankle			
		X1	Y1	Z1	X2	Y2	Z2	X3	Y3	Z3	X4	Y4	Z4	X5	Y5	Z5	X6	Y6	Z6	X7	Y7	Z7	X8	Y8	Z8	X9	Y9	Z9	X10	Y10	Z10	X11	Y11	Z11	X12	Y12	Z12	X13	Y13	Z13	X14	Y14	Z14	X15	Y15	Z15	X16	Y16	Z16	X17	Y17	Z17	X18	Y18	Z18	X19	Y19	Z19	

63	0.620	-47.64902	1732.44482	1809.14246	17.43907	160.90355	1910.08875							-41.52691	1568.05103	1872.89612	254.13817	1582.48486	1900.70264				100.45805	1623.34924	1922.42395	-313.20731	1432.94714	1717.21582				-390.45499	1436.55884	1409.86450	390.92102	1070.88806	1622.59265				297.90063	1081.76721	1897.31030	53.52013	1107.22876	2011.73010	16.49663	621.20514	1672.15576	266.76593	595.78229	1974.42542				156.52222	100.77490	2059.96924	
64	0.630	-44.54824	1732.37073	1803.53406	32.27687	151.82362	1883.63440							-37.56350	1567.64380	1865.91833	258.13913	1582.07703	1893.46582				104.23331	1623.12585	1915.03589	-310.46616	1432.26221	1712.51917				-388.99780	1435.62659	1405.81470	394.63544	1070.69836	1614.51367				301.75427	1081.08093	1891.62097	56.83949	1107.07153	2005.12170	22.13091	622.66388	1666.50720	268.72580	594.27625	1970.00439				156.25262	101.41973	2059.40112	
65	0.640	-41.40868	1731.55139	1797.21619	438.73700	1252.36829	1847.56165							-33.87638	1567.55591	1859.44678	261.35703	1582.01379	1885.03137				108.46313	1622.54626	1906.97839	-307.95142	1431.78491	1707.84753				-387.84119	1434.32776	1400.06641	397.00974	1070.47510	1606.13831				305.23486	1079.58179	1884.60547	60.45639	1106.88513	1998.14502	28.14311	622.61127	1657.24670	269.58578	594.52905	1968.45154				156.18730	101.30395	2058.98120	
66	0.650	-37.70555	1730.25439	1788.77429	441.59286	1251.38696	1838.56287							-29.45945	1566.44482	1851.61865	265.45856	1580.62390	1876.39929				111.83743	1622.19873	1900.51440	-305.19684	1430.72925	1702.63342				-386.07971	1434.50159	1396.39709	399.48898	1070.04175	1597.13855				308.96411	1078.87305	1877.60864	64.55318	1106.50439	1990.61023	33.74656	622.03937	1650.18152	269.21359	594.13025	1964.08582				155.87828	101.70522	2059.04028	
67	0.660	-35.09704	1729.70740	1781.58276	444.54919	1250.93420	1829.47046							-26.45786	1565.69580	1846.32727	268.88495	1580.26611	1869.64148				116.03104	1621.03613	1892.35083	-302.31161	1429.97290	1696.91138				-385.30118	1432.13940	1392.46301	401.57361	1069.02881	1589.05591				312.22327	1077.63318	1869.37744	68.04765	1106.39734	1984.24976	39.07333	621.07874	1646.22107	272.64374	593.25507	1960.51270				155.84729	101.66933	2058.82983	
68	0.670	-32.14359	1728.61169	1774.70618	447.54788	1249.62524	1820.09155							-22.62338	1565.03857	1838.09460	272.16504	1579.38171	1860.40686				119.10652	1620.32373	1885.12573	-299.77954	1428.88049	1691.42212				-384.44260	1430.12549	1385.87207	404.30771	1068.86365	1579.33765				315.75320	1076.54089	1861.77625	71.47360	1105.42419	1976.17212	43.91645	620.99542	1639.29688	272.14014	593.40045	1956.33069				155.34860	102.67591	2058.92798	
69	0.680	-28.42510	1728.01807	1767.76697										-19.81360	1564.03711	1831.19641	275.74756	1578.40833	1852.61206				122.80947	1619.74524	1876.54492	-297.45776	1428.21228	1685.96851							406.45056	1067.47900	1570.61035				318.96619	1075.36853	1854.81458	74.91482	1104.57544	1968.07715	48.71629	619.27075	1632.49243	274.36310	591.95490	1951.22327				154.82558	103.52394	2059.08447	
70	0.690	-25.67069	1727.27246	1761.21277	-383.19745	1427.66443	1371.45703							-16.81480	1562.93530	1824.15637	279.03491	1577.32642	1844.41589				125.96476	1618.60962	1869.50879	-295.20932	1426.58875	1680.16565							408.39389	1066.88818	1563.00378				322.29221	1073.83508	1847.69727	78.42949	1104.11365	1960.79736	53.35416	617.44849	1627.09045	275.78793	591.72675	1948.16760				155.18076	103.77616	2057.59375	
71	0.700	-23.50821	1726.07019	1753.77466	-380.86902	1425.73340	1371.80725							-12.83504	1561.61951	1816.01807	281.70352	1576.38220	1835.92151				129.27127	1617.37708	1861.77576	-293.05524	1425.02417	1674.34363	457.14258	1246.54138	1793.45605				410.49466	1065.96216	1553.06189				325.74509	1072.74890	1840.06665	81.89648	1103.37158	1953.38806	58.09722	615.55927	1621.49036	278.73767	590.99030	1942.58398				154.74486	104.31077	2057.30688	
72	0.710	-20.00149	1724.16895	1745.22290	-381.45404	1424.82153	1365.49036							-9.99484	1560.54541	1809.64844	285.37167	1575.21729	1827.42822				132.26808	1615.90723	1853.31189	-290.85913	1424.24805	1668.20374	459.47614	1245.64453	1784.82532	10.65290	1062.09351	1728.90393	412.82034	1064.73547	1544.99072				328.93652	1071.33813	1831.39233	85.12868	1101.92993	1944.43176	62.76266	613.57477	1615.87158	279.78073	590.72583	1937.69006				154.69073	104.91096	2056.41504	
73	0.720	-17.33882	1723.22021	1738.89380	-378.75052	1423.09265	1360.71558							-7.40877	1559.13757	1802.15552	288.23419	1573.71582	1818.08606				135.01933	1615.08740	1846.76147	-288.54099	1422.35132	1662.79468	461.93045	1244.06201	1775.13232				414.00552	1063.21729	1535.58777				332.07639	1070.20752	1822.80750	88.17445	1101.21680	1937.11682	67.31801	610.41095	1609.30811	281.31519	589.32349	1932.67993				154.49315	105.32211	2056.19824	
74	0.730	-15.14333	1721.81494	1730.76672	-377.85583	1422.74622	1356.20581							-4.53729	1557.47461	1794.39392	291.20560	1572.50208	1810.78406				138.25919	1613.57703	1837.71863	-286.77563	1421.20618	1657.98682							415.81805	1061.65039	1526.37927	17.15780	1058.09460	1712.91382	335.25385	1068.50085	1816.64453	91.76602	1100.04932	1927.90295	71.77811	607.13141	1606.56384	284.06277	588.80151	1926.74866	169.96733	92.67043	1617.39929	154.18272	105.99037	2055.59790	
75	0.740	-12.76113	1720.10327	1723.41577	-376.72757	1420.54724	1349.70105							-1.60515	1555.95300	1786.79041	293.65546	1570.71204	1801.30371				141.01871	1611.92981	1829.83691	-284.55518	1419.41821	1651.33862	467.95090	1241.53528	1757.62952				417.82950	1060.66724	1517.62024	19.96678	1056.24658	1703.36511	338.36493	1066.81763	1806.82935	95.28301	1097.77051	1917.96289	76.30807	603.74731	1601.46802	286.03625	587.52667	1921.12671	179.21002	92.73843	1595.59375	153.85738	106.82429	2055.02173	
76	0.750	-10.08347	1718.31897	1716.19421										0.57537	1554.27502	1779.26379	296.39670	1569.52759	1793.68286				143.72644	1610.24268	1822.09949	-282.50446	1417.76160	1644.23267	470.06595	1239.95447	1746.97388				419.66272	1058.97327	1507.90027	23.43156	1053.95288	1694.17883	341.78662	1065.36633	1798.15295	97.84867	1097.48218	1911.10510	80.68070	600.20526	1596.40466	287.23270	586.80731	1915.15918	189.39825	93.86901	1577.45703	153.81969	107.47813	2054.06470	
77	0.760	-7.89928	1716.75684	1706.86023										3.08605	1552.05823	1771.95178	298.65085	1568.13635	1785.30115				146.22285	1608.50793	1813.59424	-281.02585	1415.92126	1638.75134	472.78033	1238.71521	1738.79333	-375.61981	1416.40088	1337.33459	421.35172	1057.09851	1498.79419	26.79246	1051.07166	1685.70386	345.07431	1063.96667	1789.29541	100.86380	1095.01147	1901.29358	84.99241	597.18921	1590.77979	289.02155	586.47748	1909.17346	198.92810	93.35754	1557.00500	153.79019	108.47705	2053.21484	
